<svg width="385" height="84" viewBox="0 0 385 84" fill="none" xmlns="http://www.w3.org/2000/svg">
<path d="M33.9388 4.10868C38.5155 -0.468203 45.9361 -0.468185 50.5131 4.10868L80.1407 33.7364C84.7176 38.3131 84.7176 45.7337 80.1407 50.3106L50.5131 79.9383C45.9361 84.5152 38.5155 84.5152 33.9388 79.9383L4.31107 50.3106C-0.265801 45.7337 -0.265801 38.3131 4.31109 33.7364L33.9388 4.10868Z" fill="currentColor"/>
<path d="M48.4208 4.1082C52.9977 -0.468691 60.4183 -0.468673 64.9952 4.1082L94.6229 33.7359C99.1996 38.3126 99.1996 45.7332 94.6229 50.3102L64.9952 79.9378C60.4183 84.5147 52.9977 84.5147 48.4208 79.9378L18.7932 50.3102C14.2164 45.7332 14.2164 38.3126 18.7932 33.7359L48.4208 4.1082Z" fill="#08A0F8"/>
<path d="M43.4455 54.3676C41.764 54.3676 40.2438 54.0797 38.8849 53.5038C37.5488 52.9282 36.4892 52.0988 35.7061 51.0163C34.923 49.9337 34.52 48.6552 34.4968 47.1811H39.6794C39.7487 48.1715 40.0941 48.9546 40.7161 49.5305C41.361 50.1064 42.2362 50.3943 43.3419 50.3943C44.4705 50.3943 45.3574 50.1295 46.0023 49.5997C46.6472 49.0468 46.9698 48.3329 46.9698 47.4576C46.9698 46.7435 46.7509 46.1562 46.3132 45.6954C45.8756 45.2348 45.3228 44.8777 44.6548 44.6243C44.0099 44.3479 43.1115 44.0485 41.9598 43.7259C40.3935 43.2654 39.1152 42.8162 38.1247 42.3786C37.1573 41.9178 36.3166 41.2383 35.6025 40.3399C34.9115 39.4186 34.566 38.1978 34.566 36.6777C34.566 35.2495 34.923 34.0058 35.6371 32.9462C36.3512 31.8866 37.353 31.0804 38.643 30.5276C39.933 29.9518 41.4071 29.6638 43.0654 29.6638C45.5532 29.6638 47.5686 30.2743 49.1119 31.495C50.6783 32.6929 51.5419 34.3742 51.7033 36.5394H46.3824C46.3363 35.7102 45.9792 35.0307 45.3114 34.501C44.6663 33.948 43.8025 33.6718 42.72 33.6718C41.7757 33.6718 41.0155 33.9136 40.4396 34.3973C39.8869 34.881 39.6104 35.5835 39.6104 36.5048C39.6104 37.1499 39.8177 37.6912 40.2324 38.1288C40.67 38.5433 41.1998 38.889 41.8217 39.1653C42.4666 39.4186 43.3649 39.7182 44.5166 40.0637C46.083 40.5243 47.3613 40.985 48.3517 41.4456C49.3423 41.9064 50.1946 42.5973 50.9085 43.5187C51.6226 44.44 51.9796 45.6493 51.9796 47.1465C51.9796 48.4365 51.6455 49.6341 50.9777 50.7398C50.3097 51.8455 49.3308 52.7322 48.0408 53.4002C46.7509 54.0453 45.2192 54.3676 43.4455 54.3676Z" fill="white"/>
<path d="M67.3677 54.3676C65.1104 54.3676 63.0374 53.8379 61.1486 52.7783C59.2598 51.7189 57.7626 50.2561 56.6569 48.3904C55.5513 46.5016 54.9985 44.371 54.9985 41.9985C54.9985 39.649 55.5513 37.5415 56.6569 35.6756C57.7626 33.7869 59.2598 32.3128 61.1486 31.2532C63.0374 30.1936 65.1104 29.6638 67.3677 29.6638C69.648 29.6638 71.7211 30.1936 73.5869 31.2532C75.4757 32.3128 76.9614 33.7869 78.044 35.6756C79.1496 37.5415 79.7024 39.649 79.7024 41.9985C79.7024 44.371 79.1496 46.5016 78.044 48.3904C76.9614 50.2561 75.4757 51.7189 73.5869 52.7783C71.6981 53.8379 69.6251 54.3676 67.3677 54.3676ZM67.3677 50.0488C68.8188 50.0488 70.0973 49.7263 71.2029 49.0814C72.3084 48.4134 73.1722 47.4691 73.7942 46.2483C74.4161 45.0274 74.727 43.6108 74.727 41.9985C74.727 40.386 74.4161 38.981 73.7942 37.7833C73.1722 36.5624 72.3084 35.6296 71.2029 34.9847C70.0973 34.3398 68.8188 34.0172 67.3677 34.0172C65.9165 34.0172 64.6267 34.3398 63.498 34.9847C62.3925 35.6296 61.5287 36.5624 60.9067 37.7833C60.2848 38.981 59.9739 40.386 59.9739 41.9985C59.9739 43.6108 60.2848 45.0274 60.9067 46.2483C61.5287 47.4691 62.3925 48.4134 63.498 49.0814C64.6267 49.7263 65.9165 50.0488 67.3677 50.0488Z" fill="white"/>
<path d="M125.547 58.9196C123.445 58.9196 121.545 58.5597 119.846 57.8399C118.176 57.1202 116.851 56.0836 115.872 54.7304C114.893 53.377 114.39 51.7792 114.361 49.9365H120.839C120.925 51.1746 121.357 52.1535 122.135 52.8732C122.941 53.5931 124.035 53.9529 125.417 53.9529C126.828 53.9529 127.936 53.6219 128.742 52.9597C129.549 52.2686 129.952 51.376 129.952 50.282C129.952 49.3894 129.678 48.6552 129.131 48.0793C128.584 47.5035 127.893 47.0572 127.058 46.7405C126.252 46.395 125.129 46.0207 123.689 45.6175C121.732 45.0416 120.134 44.4802 118.896 43.9331C117.686 43.3573 116.635 42.508 115.743 41.385C114.879 40.2334 114.447 38.7075 114.447 36.807C114.447 35.022 114.893 33.4671 115.786 32.1427C116.679 30.8183 117.931 29.8105 119.543 29.1195C121.156 28.3998 122.998 28.0398 125.072 28.0398C128.181 28.0398 130.7 28.8028 132.63 30.3288C134.588 31.826 135.667 33.9279 135.869 36.6344H129.218C129.16 35.5977 128.714 34.7484 127.879 34.0862C127.073 33.3953 125.993 33.0498 124.64 33.0498C123.459 33.0498 122.509 33.352 121.789 33.9566C121.098 34.5613 120.753 35.4394 120.753 36.5911C120.753 37.3974 121.012 38.074 121.53 38.6209C122.077 39.1393 122.739 39.5711 123.517 39.9167C124.323 40.2334 125.446 40.6077 126.886 41.0395C128.843 41.6154 130.441 42.1913 131.679 42.7671C132.917 43.343 133.983 44.2068 134.875 45.3585C135.768 46.5101 136.214 48.0218 136.214 49.8932C136.214 51.5056 135.797 53.0028 134.962 54.3849C134.127 55.7668 132.903 56.8753 131.291 57.7103C129.678 58.5166 127.764 58.9196 125.547 58.9196Z" fill="currentColor"/>
<path d="M171.169 34.3453C174.106 34.3453 176.468 35.2522 178.253 37.0661C180.066 38.8513 180.973 41.3562 180.973 44.581V58.6174H174.927V45.4016C174.927 43.5301 174.452 42.1049 173.502 41.126C172.551 40.1181 171.255 39.6143 169.614 39.6143C167.973 39.6143 166.663 40.1181 165.684 41.126C164.734 42.1049 164.259 43.5301 164.259 45.4016V58.6174H158.212V45.4016C158.212 43.5301 157.737 42.1049 156.787 41.126C155.837 40.1181 154.541 39.6143 152.9 39.6143C151.23 39.6143 149.906 40.1181 148.927 41.126C147.977 42.1049 147.502 43.5301 147.502 45.4016V58.6174H141.455V34.6908H147.502V37.5845C148.279 36.5768 149.272 35.785 150.482 35.2091C151.72 34.6333 153.073 34.3453 154.541 34.3453C156.413 34.3453 158.083 34.7484 159.551 35.5546C161.02 36.3319 162.157 37.4549 162.963 38.9233C163.741 37.5412 164.864 36.4327 166.332 35.5977C167.829 34.7628 169.442 34.3453 171.169 34.3453Z" fill="currentColor"/>
<path d="M185.156 46.568C185.156 44.1495 185.631 42.0044 186.583 40.1329C187.561 38.2614 188.871 36.8217 190.512 35.8141C192.182 34.8062 194.04 34.3024 196.084 34.3024C197.869 34.3024 199.424 34.6623 200.748 35.3821C202.1 36.102 203.181 37.0089 203.988 38.1031V34.6911H210.076V58.6176H203.988V55.1194C203.209 56.2421 202.13 57.178 200.748 57.9265C199.394 58.6464 197.826 59.0062 196.04 59.0062C194.026 59.0062 192.182 58.4881 190.512 57.4514C188.871 56.415 187.561 54.961 186.583 53.0894C185.631 51.1891 185.156 49.0154 185.156 46.568ZM203.988 46.6544C203.988 45.1859 203.7 43.9334 203.123 42.8969C202.547 41.8315 201.77 41.0255 200.79 40.4784C199.812 39.9025 198.762 39.6146 197.637 39.6146C196.515 39.6146 195.478 39.8882 194.529 40.4351C193.579 40.9822 192.802 41.7885 192.197 42.8537C191.621 43.8903 191.333 45.1284 191.333 46.568C191.333 48.0075 191.621 49.2744 192.197 50.3686C192.802 51.434 193.579 52.2545 194.529 52.8304C195.508 53.4062 196.545 53.694 197.637 53.694C198.762 53.694 199.812 53.4205 200.79 52.8734C201.77 52.2976 202.547 51.4915 203.123 50.4549C203.7 49.3897 203.988 48.1228 203.988 46.6544Z" fill="currentColor"/>
<path d="M222.027 38.405C222.805 37.1382 223.812 36.1448 225.051 35.425C226.317 34.7051 227.757 34.3453 229.369 34.3453V40.694H227.771C225.872 40.694 224.431 41.1403 223.453 42.0329C222.502 42.9254 222.027 44.4802 222.027 46.6972V58.6174H215.98V34.6908H222.027V38.405Z" fill="currentColor"/>
<path d="M240.483 39.6579V51.2324C240.483 52.0386 240.67 52.6288 241.044 53.0031C241.447 53.3485 242.109 53.5214 243.03 53.5214H245.837V58.6177H242.036C236.941 58.6177 234.392 56.1416 234.392 51.1891V39.6579H231.543V34.6911H234.392V28.7743H240.483V34.6911H245.837V39.6579H240.483Z" fill="currentColor"/>
<path d="M274.472 58.9196C271.649 58.9196 269.058 58.2574 266.697 56.9331C264.337 55.6085 262.464 53.7803 261.083 51.448C259.701 49.087 259.009 46.4237 259.009 43.4581C259.009 40.5214 259.701 37.8867 261.083 35.5547C262.464 33.1936 264.337 31.3509 266.697 30.0266C269.058 28.702 271.649 28.0398 274.472 28.0398C277.321 28.0398 279.913 28.702 282.245 30.0266C284.605 31.3509 286.462 33.1936 287.816 35.5547C289.199 37.8867 289.889 40.5214 289.889 43.4581C289.889 46.4237 289.199 49.087 287.816 51.448C286.462 53.7803 284.605 55.6085 282.245 56.9331C279.885 58.2574 277.293 58.9196 274.472 58.9196ZM274.472 53.5211C276.285 53.5211 277.883 53.1181 279.265 52.3118C280.647 51.4768 281.728 50.2963 282.504 48.7703C283.281 47.2443 283.67 45.4736 283.67 43.4581C283.67 41.4427 283.281 39.6864 282.504 38.1891C281.728 36.6631 280.647 35.4971 279.265 34.6909C277.883 33.8846 276.285 33.4816 274.472 33.4816C272.657 33.4816 271.045 33.8846 269.635 34.6909C268.253 35.4971 267.172 36.6631 266.395 38.1891C265.617 39.6864 265.228 41.4427 265.228 43.4581C265.228 45.4736 265.617 47.2443 266.395 48.7703C267.172 50.2963 268.253 51.4768 269.635 52.3118C271.045 53.1181 272.657 53.5211 274.472 53.5211Z" fill="currentColor"/>
<path d="M305.357 39.6579H301.168V58.6177H295.035V39.6579H292.314V34.6912H295.035V33.4819C295.035 30.545 295.87 28.3856 297.54 27.0036C299.21 25.6215 301.729 24.9736 305.097 25.0601V30.1563C303.63 30.1275 302.608 30.3723 302.033 30.8905C301.455 31.4088 301.168 32.3446 301.168 33.6978V34.6912H305.357V39.6579Z" fill="currentColor"/>
<path d="M320.245 39.6575H316.056V58.6173H309.923V39.6575H307.203V34.6908H309.923V33.4815C309.923 30.5446 310.758 28.3852 312.428 27.0033C314.098 25.6212 316.617 24.9733 319.986 25.0598V30.1559C318.517 30.1271 317.495 30.372 316.919 30.8901C316.344 31.4084 316.056 32.3442 316.056 33.6974V34.6908H320.245V39.6575Z" fill="currentColor"/>
<path d="M327.23 31.8409C326.165 31.8409 325.272 31.5097 324.551 30.8475C323.861 30.1563 323.515 29.307 323.515 28.2993C323.515 27.2917 323.861 26.4566 324.551 25.7944C325.272 25.1033 326.165 24.7578 327.23 24.7578C328.296 24.7578 329.173 25.1033 329.865 25.7944C330.584 26.4566 330.944 27.2917 330.944 28.2993C330.944 29.307 330.584 30.1563 329.865 30.8475C329.173 31.5097 328.296 31.8409 327.23 31.8409ZM330.209 34.6912V58.6178H324.163V34.6912H330.209Z" fill="currentColor"/>
<path d="M334.628 46.6544C334.628 44.1783 335.133 42.0188 336.141 40.176C337.149 38.3045 338.546 36.865 340.33 35.8571C342.115 34.8207 344.159 34.3024 346.463 34.3024C349.429 34.3024 351.876 35.0511 353.806 36.5483C355.763 38.0165 357.073 40.0896 357.735 42.7674H351.214C350.868 41.7309 350.278 40.9247 349.443 40.3488C348.636 39.7442 347.628 39.4419 346.419 39.4419C344.693 39.4419 343.324 40.0753 342.316 41.3422C341.308 42.5802 340.805 44.3509 340.805 46.6544C340.805 48.9289 341.308 50.6997 342.316 51.9666C343.324 53.2046 344.693 53.8236 346.419 53.8236C348.866 53.8236 350.465 52.7296 351.214 50.5414H357.735C357.073 53.1326 355.763 55.1912 353.806 56.7172C351.848 58.2432 349.399 59.0062 346.463 59.0062C344.159 59.0062 342.115 58.5024 340.33 57.4947C338.546 56.4582 337.149 55.0186 336.141 53.1759C335.133 51.3044 334.628 49.1305 334.628 46.6544Z" fill="currentColor"/>
<path d="M384.406 46.1361C384.406 46.9999 384.348 47.7772 384.233 48.4683H366.742C366.887 50.1957 367.49 51.5491 368.557 52.528C369.621 53.5069 370.931 53.9964 372.486 53.9964C374.732 53.9964 376.33 53.0318 377.279 51.1028H383.802C383.11 53.4062 381.786 55.3065 379.829 56.8037C377.871 58.2722 375.466 59.0062 372.615 59.0062C370.313 59.0062 368.239 58.5024 366.396 57.4947C364.583 56.4582 363.158 55.0041 362.12 53.1326C361.114 51.2611 360.609 49.1017 360.609 46.6544C360.609 44.1783 361.114 42.0044 362.12 40.1329C363.128 38.2614 364.539 36.8217 366.353 35.8141C368.166 34.8062 370.255 34.3024 372.615 34.3024C374.891 34.3024 376.921 34.7919 378.706 35.7708C380.519 36.7497 381.915 38.1461 382.895 39.9601C383.903 41.7452 384.406 43.8038 384.406 46.1361ZM378.144 44.4085C378.114 42.8537 377.553 41.6156 376.46 40.6943C375.366 39.7442 374.026 39.2691 372.442 39.2691C370.945 39.2691 369.679 39.7298 368.643 40.6512C367.635 41.5436 367.015 42.7961 366.786 44.4085H378.144Z" fill="currentColor"/>
</svg>
